<svg width="44" height="43" viewBox="0 0 44 43" fill="none" xmlns="http://www.w3.org/2000/svg">
<circle cx="30.4574" cy="10.273" r="7.3793" fill="#00AEEF"/>
<ellipse cx="8.0296" cy="8.18032" rx="1.47586" ry="1.47586" transform="rotate(-164.169 8.0296 8.18032)" fill="#00AEEF"/>
<ellipse cx="3.81151" cy="5.75807" rx="0.885516" ry="0.885516" transform="rotate(-164.169 3.81151 5.75807)" fill="#00AEEF"/>
<path d="M39.0168 24.0081C39.0168 27.1697 36.4983 29.7323 33.3955 29.7323C32.569 29.7323 31.7858 29.5518 31.0804 29.226V38.3143H22.9579C23.5205 37.4248 23.8494 36.368 23.8494 35.232C23.8494 32.0705 21.3308 29.5078 18.2238 29.5078C15.1167 29.5078 12.5982 32.0705 12.5982 35.232C12.5982 36.368 12.9271 37.4248 13.4897 38.3143H5.36719V12.1502H12.8708C12.6934 11.5954 12.5982 11.0009 12.5982 10.3889C12.5982 7.22736 15.1167 4.66467 18.2238 4.66467C21.3308 4.66467 23.8494 7.22736 23.8494 10.3889C23.8494 11.0009 23.7542 11.5954 23.5767 12.1502H31.0804V18.7903C31.7858 18.4644 32.569 18.2839 33.3955 18.2839C36.4983 18.2839 39.0168 20.8466 39.0168 24.0081Z" stroke="#111928" stroke-width="1.77103" stroke-miterlimit="10"/>
</svg>
