<svg width="44" height="43" viewBox="0 0 44 43" fill="none" xmlns="http://www.w3.org/2000/svg">
<circle cx="25.6488" cy="18.5077" r="7.3793" fill="#00AEEF"/>
<path d="M23.9228 27.6589V27.6589C23.9117 27.6589 23.9105 27.6426 23.9213 27.6404C29.4993 26.5518 33.6142 21.602 33.6142 15.6584C33.6142 8.91772 28.1984 3.45483 21.5097 3.45483C14.8211 3.45483 9.41016 8.91772 9.41016 15.6584C9.41016 21.635 13.6985 26.6066 19.3238 27.6582C19.325 27.6584 19.3257 27.657 19.3249 27.6561V27.6561C19.3241 27.6553 19.3247 27.654 19.3258 27.654H19.3609C19.3697 27.654 19.3768 27.6469 19.3768 27.6381V17.4117C19.3768 16.2131 18.3546 15.282 17.1653 15.282C15.976 15.282 14.9538 16.3023 14.9538 17.5008C14.9538 18.6994 15.9219 19.7642 17.1112 19.7642H25.8689C27.0632 19.7642 28.0805 18.6994 28.0805 17.5008C28.0805 16.3023 27.1713 15.2374 25.9771 15.2374C24.7828 15.2374 23.9228 16.2131 23.9228 17.4117V22.5353" stroke="#111928" stroke-width="1.77103" stroke-linecap="round" stroke-linejoin="round"/>
<path d="M28.5401 29.537C26.2871 30.6686 23.7939 31.2388 21.273 31.1991C18.7521 31.1595 16.2781 30.5111 14.0618 29.3093" stroke="#111928" stroke-width="1.77103" stroke-linecap="round" stroke-linejoin="round"/>
<path d="M28.605 33.8801C26.0034 34.9942 23.1759 35.4793 20.3518 35.2961" stroke="#111928" stroke-width="1.77103" stroke-linecap="round" stroke-linejoin="round"/>
<path d="M25.5667 38.7442C22.9535 39.0473 20.3061 38.826 17.7795 38.0932" stroke="#111928" stroke-width="1.77103" stroke-linecap="round" stroke-linejoin="round"/>
<ellipse cx="6.72515" cy="29.6927" rx="1.47586" ry="1.47586" transform="rotate(31.9514 6.72515 29.6927)" fill="#00AEEF"/>
<ellipse cx="10.107" cy="33.1931" rx="0.885516" ry="0.885516" transform="rotate(31.9514 10.107 33.1931)" fill="#00AEEF"/>
</svg>
