<svg width="44" height="43" viewBox="0 0 44 43" fill="none" xmlns="http://www.w3.org/2000/svg">
<g clip-path="url(#clip0_368_4254)">
<circle cx="37.3105" cy="9.53478" r="5.75585" fill="#00AEEF"/>
<path d="M13.3953 19.7184C17.0632 19.7184 20.0366 16.745 20.0366 13.077C20.0366 9.40911 17.0632 6.43567 13.3953 6.43567C9.72735 6.43567 6.75391 9.40911 6.75391 13.077C6.75391 16.745 9.72735 19.7184 13.3953 19.7184Z" stroke="#111928" stroke-width="1.77103"/>
<path d="M31.1101 19.7184C34.778 19.7184 37.7515 16.745 37.7515 13.077C37.7515 9.40911 34.778 6.43567 31.1101 6.43567C27.4422 6.43567 24.4688 9.40911 24.4688 13.077C24.4688 16.745 27.4422 19.7184 31.1101 19.7184Z" stroke="#111928" stroke-width="1.77103"/>
<path d="M4.10156 36.5432V30.4241C4.10156 28.2894 5.01723 26.2421 6.64718 24.7326C8.27712 23.2231 10.4878 22.375 12.7929 22.375H13.1136C14.2555 22.3742 15.3865 22.5818 16.4417 22.9859C17.497 23.39 18.456 23.9828 19.2638 24.7303C20.0716 25.4778 20.7124 26.3654 21.1496 27.3424C21.5868 28.3194 21.8119 29.3666 21.8119 30.4241V36.5432" stroke="#111928" stroke-width="1.77103"/>
<path d="M21.8086 36.5432V30.4241C21.8086 28.2894 22.7243 26.2421 24.3542 24.7326C25.9842 23.2231 28.1948 22.375 30.4999 22.375H30.8206C31.9625 22.3742 33.0935 22.5818 34.1488 22.9859C35.2041 23.39 36.163 23.9828 36.9708 24.7303C37.7786 25.4778 38.4194 26.3654 38.8566 27.3424C39.2939 28.3194 39.5189 29.3666 39.5189 30.4241V36.5432" stroke="#111928" stroke-width="1.77103"/>
<ellipse cx="6.18861" cy="5.13265" rx="1.47586" ry="1.47586" transform="rotate(-48.5656 6.18861 5.13265)" fill="#00AEEF"/>
<ellipse cx="10.1952" cy="2.37231" rx="0.885516" ry="0.885516" transform="rotate(-48.5656 10.1952 2.37231)" fill="#00AEEF"/>
<ellipse cx="6.18861" cy="5.13314" rx="1.47586" ry="1.47586" transform="rotate(-48.5656 6.18861 5.13314)" fill="#00AEEF"/>
<ellipse cx="10.1952" cy="2.3728" rx="0.885516" ry="0.885516" transform="rotate(-48.5656 10.1952 2.3728)" fill="#00AEEF"/>
</g>
<defs>
<clipPath id="clip0_368_4254">
<rect width="42.5047" height="42.5047" fill="white" transform="translate(0.5625 0.237061)"/>
</clipPath>
</defs>
</svg>
