<svg width="43" height="43" viewBox="0 0 43 43" fill="none" xmlns="http://www.w3.org/2000/svg">
<path d="M9.95369 4.75378C7.07782 4.75378 4.75 7.08443 4.75 9.9603C4.75 12.8362 7.08064 15.164 9.95369 15.164C12.8267 15.164 15.1602 12.8333 15.1602 9.9603C15.1602 7.08725 12.8296 4.75378 9.95369 4.75378Z" fill="#00AEEF"/>
<path d="M21.5785 37.2265C30.6008 37.2265 37.9148 29.9125 37.9148 20.8902C37.9148 11.8679 30.6008 4.55383 21.5785 4.55383C12.5562 4.55383 5.24219 11.8679 5.24219 20.8902C5.24219 29.9125 12.5562 37.2265 21.5785 37.2265Z" stroke="#111928" stroke-width="1.77103" stroke-miterlimit="10"/>
<path d="M21.5785 31.6991C27.5482 31.6991 32.3875 26.8597 32.3875 20.8901C32.3875 14.9204 27.5482 10.0811 21.5785 10.0811C15.6089 10.0811 10.7695 14.9204 10.7695 20.8901C10.7695 26.8597 15.6089 31.6991 21.5785 31.6991Z" stroke="#111928" stroke-width="1.77103" stroke-miterlimit="10"/>
<path d="M21.0469 2.09729L21.2064 15.6085" stroke="#111928" stroke-width="1.77103" stroke-miterlimit="10" stroke-linecap="round"/>
<path d="M21.0469 26.6632L21.2064 40.1745" stroke="#111928" stroke-width="1.77103" stroke-miterlimit="10" stroke-linecap="round"/>
<path d="M2.08594 21.2173L15.5972 21.0578" stroke="#111928" stroke-width="1.77103" stroke-miterlimit="10" stroke-linecap="round"/>
<path d="M26.6562 21.2173L40.1675 21.0578" stroke="#111928" stroke-width="1.77103" stroke-miterlimit="10" stroke-linecap="round"/>
<ellipse cx="35.1541" cy="4.17237" rx="1.47586" ry="1.47586" transform="rotate(38.8273 35.1541 4.17237)" fill="#00AEEF"/>
<ellipse cx="38.1034" cy="8.05352" rx="0.885516" ry="0.885516" transform="rotate(38.8274 38.1034 8.05352)" fill="#00AEEF"/>
</svg>
