<svg width="44" height="43" viewBox="0 0 44 43" fill="none" xmlns="http://www.w3.org/2000/svg">
<rect width="42.5047" height="42.5047" transform="translate(0.945312 0.255493)" fill="white"/>
<path d="M8.80134 20.6206C5.92547 20.6206 3.59766 22.9512 3.59766 25.8271C3.59766 28.703 5.9283 31.0308 8.80134 31.0308C11.6744 31.0308 14.0079 28.7002 14.0079 25.8271C14.0079 22.9541 11.6772 20.6206 8.80134 20.6206Z" fill="#00AEEF"/>
<path d="M18.7767 20.1674C23.5679 20.1674 27.4519 16.2833 27.4519 11.4922C27.4519 6.70102 23.5679 2.81702 18.7767 2.81702C13.9856 2.81702 10.1016 6.70102 10.1016 11.4922C10.1016 16.2833 13.9856 20.1674 18.7767 20.1674Z" stroke="#111928" stroke-width="1.77103"/>
<path d="M7.79342 40.9908V33.3894C7.78026 31.97 8.05368 30.562 8.5982 29.2458C9.14272 27.9296 9.94766 26.7308 10.967 25.7181C11.9863 24.7055 13.1999 23.8986 14.5388 23.3436C15.8777 22.7887 17.3156 22.4965 18.7702 22.4838C20.1697 22.4821 21.5474 22.7455 22.8299 23.2507" stroke="#111928" stroke-width="1.77103"/>
<circle cx="32.4991" cy="19.7309" r="1.47958" fill="#00AEEF"/>
<circle cx="36.6377" cy="18.5441" r="0.887745" fill="#00AEEF"/>
<circle cx="28.3928" cy="32.1336" r="6.86275" stroke="#111928" stroke-width="1.77103"/>
<path d="M28.3984 23.2786V28.813" stroke="#111928" stroke-width="1.77103" stroke-linecap="round"/>
<path d="M28.3984 35.4543V40.9888" stroke="#111928" stroke-width="1.77103" stroke-linecap="round"/>
<path d="M19.5391 32.1338L25.0735 32.1338" stroke="#111928" stroke-width="1.77103" stroke-linecap="round"/>
<path d="M31.7148 32.1338L37.2493 32.1338" stroke="#111928" stroke-width="1.77103" stroke-linecap="round"/>
</svg>
