<svg width="43" height="43" viewBox="0 0 43 43" fill="none" xmlns="http://www.w3.org/2000/svg">
<path d="M21.1342 3.8855L26.0156 8.05583H32.4024L33.4985 14.4375L38.3945 18.593L35.1938 24.2177L36.3045 30.5845L30.3124 32.8107L27.1264 38.4206L21.1342 36.2093L15.1275 38.4206L11.9414 32.8107L5.94931 30.5845L7.06005 24.2177L3.85938 18.593L8.75538 14.4375L9.86612 8.05583H16.2382L21.1342 3.8855Z" stroke="#111928" stroke-width="1.77103" stroke-miterlimit="10"/>
<circle cx="21.5715" cy="21.5959" r="9.74067" stroke="#111928" stroke-width="1.77103"/>
<path d="M16.6992 22.4814L19.3558 25.1379L25.5544 18.9393" stroke="black" stroke-width="1.77103" stroke-linecap="round"/>
<ellipse cx="27.4239" cy="2.65382" rx="1.0628" ry="1.0628" transform="rotate(26.4344 27.4239 2.65382)" fill="#00AEEF"/>
<ellipse cx="30.0918" cy="4.93082" rx="0.637683" ry="0.637683" transform="rotate(26.4344 30.0918 4.93082)" fill="#00AEEF"/>
</svg>
