<svg width="273" height="300" viewBox="0 0 273 300" fill="none" xmlns="http://www.w3.org/2000/svg">
<g filter="url(#filter0_d_606_4796)">
<mask id="path-1-inside-1_606_4796" fill="white">
<path fill-rule="evenodd" clip-rule="evenodd" d="M222.914 33.5474C222.914 31.238 220.414 29.7947 218.414 30.9494L51.5 127.317C49.5 128.472 49.5 131.358 51.5 132.513L218.414 228.881C220.414 230.036 222.914 228.592 222.914 226.283V33.5474ZM189.927 90.676C189.927 88.3666 187.427 86.9232 185.427 88.0779L117.465 127.316C115.465 128.471 115.465 131.357 117.465 132.512L185.427 171.75C187.427 172.905 189.927 171.461 189.927 169.152V90.676Z"/>
</mask>
<path fill-rule="evenodd" clip-rule="evenodd" d="M222.914 33.5474C222.914 31.238 220.414 29.7947 218.414 30.9494L51.5 127.317C49.5 128.472 49.5 131.358 51.5 132.513L218.414 228.881C220.414 230.036 222.914 228.592 222.914 226.283V33.5474ZM189.927 90.676C189.927 88.3666 187.427 86.9232 185.427 88.0779L117.465 127.316C115.465 128.471 115.465 131.357 117.465 132.512L185.427 171.75C187.427 172.905 189.927 171.461 189.927 169.152V90.676Z" fill="url(#paint0_linear_606_4796)"/>
<path d="M185.427 171.75L184.927 172.616L185.427 171.75ZM117.465 127.316L116.965 126.45L117.465 127.316ZM218.414 228.881L218.914 228.015L218.414 228.881ZM218.414 30.9494L218.914 31.8154L218.414 30.9494ZM51.5 127.317L51 126.451L51.5 127.317ZM52 128.183L218.914 31.8154L217.914 30.0833L51 126.451L52 128.183ZM218.914 228.015L52 131.647L51 133.379L217.914 229.747L218.914 228.015ZM221.914 33.5474V226.283H223.914V33.5474H221.914ZM117.965 128.182L185.927 88.9439L184.927 87.2119L116.965 126.45L117.965 128.182ZM185.927 170.884L117.965 131.646L116.965 133.378L184.927 172.616L185.927 170.884ZM188.927 90.676V169.152H190.927V90.676H188.927ZM184.927 172.616C187.594 174.156 190.927 172.231 190.927 169.152H188.927C188.927 170.692 187.26 171.654 185.927 170.884L184.927 172.616ZM185.927 88.9439C187.26 88.1741 188.927 89.1364 188.927 90.676H190.927C190.927 87.5968 187.594 85.6723 184.927 87.2119L185.927 88.9439ZM116.965 126.45C114.298 127.99 114.298 131.839 116.965 133.378L117.965 131.646C116.632 130.876 116.632 128.952 117.965 128.182L116.965 126.45ZM217.914 229.747C220.58 231.286 223.914 229.362 223.914 226.283H221.914C221.914 227.822 220.247 228.785 218.914 228.015L217.914 229.747ZM218.914 31.8154C220.247 31.0456 221.914 32.0078 221.914 33.5474H223.914C223.914 30.4682 220.58 28.5437 217.914 30.0833L218.914 31.8154ZM51 126.451C48.3333 127.991 48.3333 131.84 51 133.379L52 131.647C50.6667 130.877 50.6667 128.953 52 128.183L51 126.451Z" fill="white" mask="url(#path-1-inside-1_606_4796)"/>
</g>
<defs>
<filter id="filter0_d_606_4796" x="0" y="0.542969" width="272.914" height="298.744" filterUnits="userSpaceOnUse" color-interpolation-filters="sRGB">
<feFlood flood-opacity="0" result="BackgroundImageFix"/>
<feColorMatrix in="SourceAlpha" type="matrix" values="0 0 0 0 0 0 0 0 0 0 0 0 0 0 0 0 0 0 127 0" result="hardAlpha"/>
<feOffset dy="20"/>
<feGaussianBlur stdDeviation="25"/>
<feComposite in2="hardAlpha" operator="out"/>
<feColorMatrix type="matrix" values="0 0 0 0 0 0 0 0 0 0 0 0 0 0 0 0 0 0 0.3 0"/>
<feBlend mode="normal" in2="BackgroundImageFix" result="effect1_dropShadow_606_4796"/>
<feBlend mode="normal" in="SourceGraphic" in2="effect1_dropShadow_606_4796" result="shape"/>
</filter>
<linearGradient id="paint0_linear_606_4796" x1="35.0759" y1="53.0767" x2="200.386" y2="151.587" gradientUnits="userSpaceOnUse">
<stop stop-color="#22B0DF"/>
<stop offset="1" stop-color="#247EC8"/>
</linearGradient>
</defs>
</svg>
